<svg fill="#d2d3db" width="52" height="52" viewBox="0 0 64 64" xmlns="http://www.w3.org/2000/svg"><path d="M1.80123 32.1003C2.00123 41.4003 6.30124 50.7003 13.6012 56.3003C15.9012 58.0003 18.4012 59.0003 21.0012 60.1003C19.9012 53.0003 22.6012 45.9003 24.1012 38.9003C24.3012 38.2003 24.4012 37.4003 24.4012 36.6003C24.4012 35.5003 24.0012 34.4003 23.7012 33.3003C23.4012 31.5003 23.6012 29.6003 24.4012 27.9003C25.5012 25.6003 28.1012 23.8003 30.4012 24.7003C32.5012 25.5003 33.3012 28.3003 32.9012 30.5003C32.5012 32.8003 31.3012 34.8003 30.7012 37.0003C30.0012 39.2003 30.1012 41.9003 31.7012 43.4003C33.2012 44.8003 35.6012 44.9003 37.5012 44.1003C40.3012 42.9003 42.1012 40.1003 43.2012 37.3003C45.2012 32.1003 44.8012 25.5003 40.7012 21.7003C39.0012 20.0003 36.6012 18.9003 34.0012 18.5003C29.6012 17.8003 24.8012 19.1003 21.7012 22.3003C18.6012 25.5003 17.2012 30.4003 18.5012 34.6003C18.9012 36.0003 19.7012 37.4003 20.0012 38.8003C20.3012 40.2003 20.2012 42.0003 19.2012 43.0003C19.1012 43.1003 19.0012 43.2003 18.8012 43.3003C18.6012 43.4003 18.3012 43.2003 18.1012 43.1003C16.2012 41.9003 14.7012 40.0003 13.8012 38.0003C11.0012 31.9003 12.4012 24.3003 16.8012 19.3003C21.2012 14.3003 28.3012 11.9003 34.9012 12.8003C41.1012 13.6003 47.2012 17.3003 49.8012 23.0003C51.4012 26.4003 51.7012 30.3003 51.1012 34.0003C50.5012 37.8003 49.0012 41.4003 46.5012 44.3003C44.0012 47.2003 40.4012 49.2003 36.6012 49.4003C33.5012 49.6003 30.2012 48.5003 28.6012 45.9003C27.6012 51.3003 25.7012 56.6003 22.9012 61.3003C22.8012 61.5003 29.3012 62.9003 29.9012 62.9003C37.3012 63.5003 45.2012 60.6003 51.0012 56.0003C67.0012 43.3003 65.3012 19.0003 49.5012 7.00032C41.3012 0.700315 31.6012 -0.499684 22.0012 2.90032C19.1012 3.90032 16.4012 5.60032 13.9012 7.40032C9.90123 10.4003 6.70123 14.3003 4.60123 18.8003C2.50123 22.9003 1.70123 27.5003 1.80123 32.1003Z"/></svg>